<svg version="1.1" id="Layer_1" xmlns="http://www.w3.org/2000/svg" xmlns:xlink="http://www.w3.org/1999/xlink" x="0px" y="0px"
	 width="100%" viewBox="0 0 87 96" enable-background="new 0 0 87 96" xml:space="preserve">
<path fill="#A7E21D" opacity="1.000000" stroke="none" 
	d="
M76.000000,97.000000 
	C56.979103,97.000000 37.958210,97.000000 18.819378,96.728874 
	C12.038504,93.753899 5.726330,90.535179 1.274585,84.585579 
	C1.183056,84.723717 1.091528,84.861862 1.000000,85.000000 
	C1.000000,79.311958 1.000000,73.623917 1.255703,67.818359 
	C2.654964,65.580833 4.019900,63.548916 4.904410,61.325848 
	C9.116060,50.740547 12.210136,40.382713 6.326188,28.949009 
	C4.233404,24.882303 5.000965,18.921511 5.661032,13.985578 
	C6.255114,9.543084 8.489250,5.319910 10.000000,1.000000 
	C14.024545,1.000000 18.049089,1.000000 22.190510,1.242075 
	C29.698774,5.922823 36.819569,10.924372 44.556686,14.643882 
	C52.496597,18.460882 60.224228,15.980727 64.767601,9.550173 
	C69.382584,3.018253 77.549156,3.079824 81.752174,9.809720 
	C86.735146,17.788464 86.033638,26.144518 82.752937,34.460270 
	C81.011658,38.873959 78.498398,43.005146 77.004478,47.487453 
	C75.787270,51.139542 74.808723,55.174725 75.061012,58.950726 
	C75.609665,67.162392 83.524261,70.535812 87.715515,76.409958 
	C87.810341,76.273300 87.905167,76.136650 88.000000,76.000000 
	C88.000000,80.024544 88.000000,84.049088 87.776787,88.188683 
	C83.879105,90.579193 80.181923,92.819794 76.561615,95.178391 
	C76.152481,95.444939 76.176720,96.376701 76.000000,97.000000 
z"/>
<path fill="#000000" opacity="1.000000" stroke="none" 
	d="
M88.000000,75.531342 
	C87.905167,76.136650 87.810341,76.273300 87.715515,76.409958 
	C83.524261,70.535812 75.609665,67.162392 75.061012,58.950726 
	C74.808723,55.174725 75.787270,51.139542 77.004478,47.487453 
	C78.498398,43.005146 81.011658,38.873959 82.752937,34.460270 
	C86.033638,26.144518 86.735146,17.788464 81.752174,9.809720 
	C77.549156,3.079824 69.382584,3.018253 64.767601,9.550173 
	C60.224228,15.980727 52.496597,18.460882 44.556686,14.643882 
	C36.819569,10.924372 29.698774,5.922823 22.653694,1.242075 
	C44.598740,1.000000 66.197479,1.000000 88.000000,1.000000 
	C88.000000,25.687187 88.000000,50.374935 88.000000,75.531342 
z"/>
<path fill="#000000" opacity="1.000000" stroke="none" 
	d="
M9.508951,1.000000 
	C8.489250,5.319910 6.255114,9.543084 5.661032,13.985578 
	C5.000965,18.921511 4.233404,24.882303 6.326188,28.949009 
	C12.210136,40.382713 9.116060,50.740547 4.904410,61.325848 
	C4.019900,63.548916 2.654964,65.580833 1.255703,67.350418 
	C1.000000,44.999977 1.000000,22.999956 1.000000,1.000000 
	C3.719093,1.000000 6.368498,1.000000 9.508951,1.000000 
z"/>
<path fill="#000000" opacity="1.000000" stroke="none" 
	d="
M1.000000,85.479172 
	C1.091528,84.861862 1.183056,84.723717 1.274585,84.585579 
	C5.726330,90.535179 12.038504,93.753899 18.350719,96.728874 
	C12.424468,97.000000 6.848935,97.000000 1.000000,97.000000 
	C1.000000,93.323837 1.000000,89.641098 1.000000,85.479172 
z"/>
<path fill="#000000" opacity="1.000000" stroke="none" 
	d="
M76.479172,97.000000 
	C76.176720,96.376701 76.152481,95.444939 76.561615,95.178391 
	C80.181923,92.819794 83.879105,90.579193 87.776787,88.651871 
	C88.000000,91.603989 88.000000,94.207970 88.000000,97.000000 
	C84.320686,97.000000 80.639519,97.000000 76.479172,97.000000 
z"/>
</svg>